<svg width="37" height="40" viewBox="0 0 37 40" fill="none" xmlns="http://www.w3.org/2000/svg">
<g clip-path="url(#clip0_283_4226)">
<rect x="2" y="2" width="32" height="32" rx="16" fill="#F8EEFF"/>
<path d="M17.9999 20.4C20.6509 20.4 22.7999 18.251 22.7999 15.6C22.7999 12.9491 20.6509 10.8 17.9999 10.8C15.349 10.8 13.1999 12.9491 13.1999 15.6C13.1999 18.251 15.349 20.4 17.9999 20.4Z" fill="#662483"/>
<path d="M6.79993 34.8C6.79993 28.6145 11.8143 23.6 17.9999 23.6C24.1855 23.6 29.1999 28.6145 29.1999 34.8H6.79993Z" fill="#662483"/>
</g>
<rect x="1.25" y="1.25" width="33.5" height="33.5" rx="16.75" stroke="white" stroke-width="1.5"/>
<rect x="19" y="22.2712" width="17.6311" height="17.6311" rx="8.81555" fill="white"/>
<path d="M31.1299 30.4549C31.02 30.4549 30.9146 30.4986 30.837 30.5763C30.7593 30.654 30.7156 30.7593 30.7156 30.8692V33.7693C30.7156 33.8792 30.672 33.9845 30.5943 34.0622C30.5166 34.1399 30.4112 34.1836 30.3013 34.1836H24.5012C24.3913 34.1836 24.2859 34.1399 24.2082 34.0622C24.1305 33.9845 24.0869 33.8792 24.0869 33.7693V30.4549C24.0869 30.345 24.1305 30.2397 24.2082 30.162C24.2859 30.0843 24.3913 30.0406 24.5012 30.0406H25.3298C25.4201 30.0453 25.5095 30.0204 25.5843 29.9695C25.6591 29.9186 25.7152 29.8447 25.7441 29.7589L25.9678 29.0795C25.9956 28.9972 26.0485 28.9257 26.1192 28.8751C26.1898 28.8246 26.2745 28.7975 26.3614 28.7977H28.6441C28.754 28.7977 28.8594 28.7541 28.937 28.6764C29.0147 28.5987 29.0584 28.4933 29.0584 28.3834C29.0584 28.2736 29.0147 28.1682 28.937 28.0905C28.8594 28.0128 28.754 27.9692 28.6441 27.9692H26.3407C26.0803 27.9696 25.8267 28.0519 25.6155 28.2043C25.4044 28.3567 25.2465 28.5715 25.1641 28.8185L25.0315 29.2328H24.5012C24.1716 29.2328 23.8554 29.3637 23.6223 29.5968C23.3892 29.8299 23.2583 30.146 23.2583 30.4756V33.79C23.2583 34.1196 23.3892 34.4358 23.6223 34.6688C23.8554 34.9019 24.1716 35.0329 24.5012 35.0329H30.3013C30.6309 35.0329 30.9471 34.9019 31.1802 34.6688C31.4133 34.4358 31.5442 34.1196 31.5442 33.79V30.8899C31.547 30.8338 31.5384 30.7777 31.5188 30.725C31.4993 30.6723 31.4692 30.6242 31.4304 30.5835C31.3917 30.5428 31.345 30.5104 31.2934 30.4883C31.2417 30.4662 31.1861 30.4549 31.1299 30.4549ZM27.4012 30.0406C27.0735 30.0406 26.7531 30.1378 26.4806 30.3199C26.208 30.502 25.9956 30.7608 25.8702 31.0636C25.7448 31.3664 25.712 31.6996 25.7759 32.0211C25.8399 32.3426 25.9977 32.6378 26.2294 32.8696C26.4612 33.1014 26.7565 33.2592 27.0779 33.3231C27.3994 33.3871 27.7326 33.3543 28.0354 33.2288C28.3382 33.1034 28.5971 32.891 28.7791 32.6185C28.9612 32.346 29.0584 32.0256 29.0584 31.6978C29.0584 31.2583 28.8838 30.8368 28.5731 30.526C28.2623 30.2152 27.8408 30.0406 27.4012 30.0406ZM27.4012 32.5264C27.2374 32.5264 27.0772 32.4778 26.9409 32.3868C26.8046 32.2957 26.6984 32.1663 26.6357 32.0149C26.573 31.8635 26.5566 31.6969 26.5886 31.5362C26.6206 31.3754 26.6995 31.2278 26.8153 31.1119C26.9312 30.996 27.0789 30.9171 27.2396 30.8851C27.4003 30.8532 27.5669 30.8696 27.7183 30.9323C27.8697 30.995 27.9991 31.1012 28.0902 31.2375C28.1812 31.3737 28.2298 31.5339 28.2298 31.6978C28.2298 31.8066 28.2084 31.9144 28.1668 32.0149C28.1251 32.1154 28.0641 32.2068 27.9872 32.2837C27.9102 32.3606 27.8189 32.4217 27.7183 32.4633C27.6178 32.505 27.5101 32.5264 27.4012 32.5264ZM31.9585 27.9692H31.5442V27.5549C31.5442 27.445 31.5005 27.3396 31.4228 27.2619C31.3451 27.1843 31.2398 27.1406 31.1299 27.1406C31.02 27.1406 30.9147 27.1843 30.837 27.2619C30.7593 27.3396 30.7156 27.445 30.7156 27.5549V27.9692H30.3013C30.1914 27.9692 30.0861 28.0128 30.0084 28.0905C29.9307 28.1682 29.8871 28.2736 29.8871 28.3834C29.8871 28.4933 29.9307 28.5987 30.0084 28.6764C30.0861 28.7541 30.1914 28.7977 30.3013 28.7977H30.7156V29.212C30.7156 29.3219 30.7593 29.4273 30.837 29.5049C30.9147 29.5826 31.02 29.6263 31.1299 29.6263C31.2398 29.6263 31.3451 29.5826 31.4228 29.5049C31.5005 29.4273 31.5442 29.3219 31.5442 29.212V28.7977H31.9585C32.0684 28.7977 32.1737 28.7541 32.2514 28.6764C32.3291 28.5987 32.3727 28.4933 32.3727 28.3834C32.3727 28.2736 32.3291 28.1682 32.2514 28.0905C32.1737 28.0128 32.0684 27.9692 31.9585 27.9692Z" fill="black"/>
<defs>
<clipPath id="clip0_283_4226">
<rect x="2" y="2" width="32" height="32" rx="16" fill="white"/>
</clipPath>
</defs>
</svg>
