<svg width="709" height="982" viewBox="0 0 709 982" fill="none" xmlns="http://www.w3.org/2000/svg">
<g clip-path="url(#clip0_204_6005)">
<rect width="709" height="983" transform="translate(0 -1)" fill="#010002"/>
<g opacity="0.3" filter="url(#filter0_f_204_6005)">
<rect x="-252.908" y="-200.063" width="592.489" height="592.489" rx="296.244" transform="rotate(28.1627 -252.908 -200.063)" fill="#B100FF" fill-opacity="0.5"/>
</g>
<g filter="url(#filter1_f_204_6005)">
<path d="M470.3 834.648C263.4 1236.22 94.8631 667.3 79.8208 420.351C45.7838 -138.431 287.909 713.681 606.937 169.015C716.085 -17.3298 536.54 663.407 838.216 729.35C1139.89 795.293 652.59 551.513 838.216 688.61C1023.84 825.707 454.455 1347.23 99.8773 1168.72C-183.785 1025.91 608.19 567.016 470.3 834.648Z" stroke="url(#paint0_linear_204_6005)" stroke-width="7.52128"/>
</g>
<path d="M470.3 834.648C263.4 1236.22 94.8631 667.3 79.8208 420.351C45.7838 -138.431 287.909 713.681 606.937 169.015C716.085 -17.3298 536.54 663.407 838.216 729.35C1139.89 795.293 652.59 551.513 838.216 688.61C1023.84 825.707 454.455 1347.23 99.8773 1168.72C-183.785 1025.91 608.19 567.016 470.3 834.648Z" stroke="url(#paint1_linear_204_6005)" stroke-opacity="0.5" stroke-width="5.54263"/>
<path d="M470.3 834.648C263.4 1236.22 94.8631 667.3 79.8208 420.351C45.7838 -138.431 287.909 713.681 606.937 169.015C716.085 -17.3298 536.54 663.407 838.216 729.35C1139.89 795.293 652.59 551.513 838.216 688.61C1023.84 825.707 454.455 1347.23 99.8773 1168.72C-183.785 1025.91 608.19 567.016 470.3 834.648Z" stroke="white" stroke-opacity="0.37" stroke-width="5.54263"/>
<g filter="url(#filter2_f_204_6005)">
<ellipse cx="315.724" cy="492.851" rx="264.909" ry="265.219" transform="rotate(28.1627 315.724 492.851)" fill="#010002"/>
</g>
<g filter="url(#filter3_f_204_6005)">
<ellipse cx="-143.388" cy="-78.2069" rx="351.956" ry="352.398" transform="rotate(28.1627 -143.388 -78.2069)" fill="#010002"/>
</g>
<g opacity="0.3" filter="url(#filter4_f_204_6005)">
<rect x="674.357" y="707" width="444.809" height="445.693" rx="189.243" transform="rotate(28.1627 674.357 707)" fill="#6FD8DB"/>
</g>
<g filter="url(#filter5_f_204_6005)">
<ellipse cx="233.52" cy="769.624" rx="200.505" ry="200.757" transform="rotate(28.1627 233.52 769.624)" fill="#010002"/>
</g>
<path d="M119.578 422.348C119.51 421.743 119.229 421.274 118.734 420.942C118.24 420.605 117.618 420.437 116.868 420.437C116.331 420.437 115.866 420.522 115.474 420.693C115.082 420.859 114.778 421.089 114.56 421.383C114.347 421.673 114.241 422.003 114.241 422.374C114.241 422.685 114.313 422.953 114.458 423.179C114.607 423.405 114.801 423.594 115.04 423.748C115.283 423.897 115.543 424.023 115.82 424.125C116.097 424.223 116.363 424.304 116.619 424.368L117.897 424.7C118.315 424.803 118.743 424.941 119.182 425.116C119.621 425.291 120.028 425.521 120.403 425.806C120.778 426.092 121.08 426.445 121.31 426.867C121.545 427.289 121.662 427.794 121.662 428.382C121.662 429.124 121.47 429.782 121.087 430.357C120.707 430.933 120.156 431.386 119.431 431.719C118.711 432.051 117.839 432.217 116.817 432.217C115.837 432.217 114.989 432.062 114.273 431.751C113.557 431.44 112.996 430.999 112.592 430.428C112.187 429.852 111.963 429.17 111.92 428.382L113.902 428.382C113.94 428.855 114.094 429.249 114.362 429.565C114.635 429.876 114.982 430.108 115.404 430.261C115.83 430.411 116.297 430.485 116.804 430.485C117.362 430.485 117.859 430.398 118.293 430.223C118.732 430.044 119.077 429.797 119.329 429.482C119.58 429.162 119.706 428.789 119.706 428.363C119.706 427.975 119.595 427.658 119.374 427.411C119.156 427.163 118.86 426.959 118.485 426.797C118.114 426.635 117.695 426.492 117.226 426.369L115.679 425.947C114.631 425.661 113.8 425.242 113.186 424.688C112.577 424.134 112.272 423.401 112.272 422.489C112.272 421.734 112.477 421.076 112.886 420.514C113.295 419.951 113.849 419.514 114.548 419.203C115.246 418.888 116.035 418.73 116.913 418.73C117.799 418.73 118.581 418.886 119.259 419.197C119.94 419.508 120.477 419.936 120.869 420.482C121.261 421.023 121.466 421.645 121.483 422.348L119.578 422.348ZM128.452 422.182L128.452 423.716L123.089 423.716L123.089 422.182L128.452 422.182ZM124.527 419.83L126.438 419.83L126.438 429.117C126.438 429.488 126.494 429.767 126.605 429.955C126.715 430.138 126.858 430.264 127.033 430.332C127.212 430.396 127.406 430.428 127.615 430.428C127.768 430.428 127.902 430.417 128.017 430.396C128.132 430.374 128.222 430.357 128.286 430.344L128.631 431.923C128.52 431.966 128.362 432.009 128.158 432.051C127.953 432.098 127.698 432.124 127.391 432.128C126.888 432.136 126.419 432.047 125.985 431.859C125.55 431.672 125.198 431.382 124.93 430.99C124.661 430.598 124.527 430.106 124.527 429.514L124.527 419.83ZM133.423 432.217C132.801 432.217 132.239 432.102 131.736 431.872C131.233 431.638 130.835 431.299 130.54 430.856C130.251 430.413 130.106 429.869 130.106 429.226C130.106 428.672 130.212 428.216 130.425 427.858C130.638 427.5 130.926 427.217 131.288 427.008C131.651 426.799 132.055 426.641 132.503 426.535C132.95 426.428 133.406 426.347 133.871 426.292C134.459 426.224 134.936 426.168 135.303 426.126C135.669 426.079 135.935 426.004 136.102 425.902C136.268 425.8 136.351 425.634 136.351 425.403L136.351 425.359C136.351 424.8 136.193 424.368 135.878 424.061C135.567 423.754 135.102 423.601 134.484 423.601C133.841 423.601 133.334 423.744 132.963 424.029C132.597 424.31 132.343 424.624 132.202 424.969L130.406 424.56C130.619 423.963 130.93 423.482 131.339 423.115C131.753 422.744 132.228 422.476 132.765 422.31C133.302 422.139 133.866 422.054 134.459 422.054C134.851 422.054 135.266 422.101 135.705 422.195C136.148 422.284 136.562 422.45 136.945 422.693C137.333 422.936 137.651 423.283 137.898 423.735C138.145 424.183 138.268 424.764 138.268 425.48L138.268 432L136.402 432L136.402 430.658L136.325 430.658C136.202 430.905 136.016 431.148 135.769 431.386C135.522 431.625 135.205 431.823 134.817 431.981C134.429 432.139 133.964 432.217 133.423 432.217ZM133.839 430.683C134.367 430.683 134.819 430.579 135.194 430.37C135.573 430.161 135.861 429.889 136.057 429.552C136.257 429.211 136.357 428.847 136.357 428.459L136.357 427.193C136.289 427.261 136.157 427.325 135.961 427.385C135.769 427.44 135.55 427.489 135.303 427.532C135.055 427.57 134.815 427.607 134.58 427.641C134.346 427.67 134.15 427.696 133.992 427.717C133.621 427.764 133.283 427.843 132.976 427.954C132.673 428.065 132.43 428.224 132.247 428.433C132.068 428.638 131.979 428.911 131.979 429.251C131.979 429.724 132.153 430.082 132.503 430.325C132.852 430.564 133.298 430.683 133.839 430.683ZM145.487 422.182L145.487 423.716L139.938 423.716L139.938 422.182L145.487 422.182ZM141.46 432L141.46 421.044C141.46 420.43 141.594 419.921 141.862 419.516C142.131 419.107 142.487 418.803 142.93 418.602C143.373 418.398 143.855 418.295 144.374 418.295C144.758 418.295 145.086 418.327 145.359 418.391C145.632 418.451 145.834 418.506 145.966 418.558L145.519 420.104C145.429 420.079 145.314 420.049 145.173 420.015C145.033 419.977 144.862 419.957 144.662 419.957C144.198 419.957 143.865 420.072 143.665 420.303C143.469 420.533 143.371 420.865 143.371 421.3L143.371 432L141.46 432ZM152.131 422.182L152.131 423.716L146.583 423.716L146.583 422.182L152.131 422.182ZM148.104 432L148.104 421.044C148.104 420.43 148.238 419.921 148.507 419.516C148.775 419.107 149.131 418.803 149.574 418.602C150.018 418.398 150.499 418.295 151.019 418.295C151.403 418.295 151.731 418.327 152.003 418.391C152.276 418.451 152.479 418.506 152.611 418.558L152.163 420.104C152.074 420.079 151.959 420.049 151.818 420.015C151.677 419.977 151.507 419.957 151.307 419.957C150.842 419.957 150.51 420.072 150.309 420.303C150.113 420.533 150.015 420.865 150.015 421.3L150.015 432L148.104 432ZM160.778 418.909L160.778 432L158.867 432L158.867 418.909L160.778 418.909ZM167.485 432.198C166.564 432.198 165.761 431.987 165.075 431.565C164.389 431.143 163.856 430.553 163.477 429.795C163.098 429.036 162.908 428.15 162.908 427.136C162.908 426.117 163.098 425.227 163.477 424.464C163.856 423.701 164.389 423.109 165.075 422.687C165.761 422.265 166.564 422.054 167.485 422.054C168.405 422.054 169.209 422.265 169.895 422.687C170.581 423.109 171.113 423.701 171.493 424.464C171.872 425.227 172.062 426.117 172.062 427.136C172.062 428.15 171.872 429.036 171.493 429.795C171.113 430.553 170.581 431.143 169.895 431.565C169.209 431.987 168.405 432.198 167.485 432.198ZM167.491 430.594C168.088 430.594 168.582 430.436 168.974 430.121C169.366 429.805 169.656 429.386 169.844 428.862C170.035 428.337 170.131 427.76 170.131 427.129C170.131 426.503 170.035 425.928 169.844 425.403C169.656 424.875 169.366 424.451 168.974 424.131C168.582 423.812 168.088 423.652 167.491 423.652C166.89 423.652 166.392 423.812 165.996 424.131C165.604 424.451 165.312 424.875 165.12 425.403C164.932 425.928 164.839 426.503 164.839 427.129C164.839 427.76 164.932 428.337 165.12 428.862C165.312 429.386 165.604 429.805 165.996 430.121C166.392 430.436 166.89 430.594 167.491 430.594ZM178.311 435.886C177.532 435.886 176.86 435.784 176.298 435.58C175.74 435.375 175.284 435.104 174.93 434.768C174.576 434.431 174.312 434.063 174.137 433.662L175.78 432.984C175.895 433.172 176.049 433.37 176.24 433.579C176.436 433.792 176.701 433.973 177.033 434.122C177.37 434.271 177.802 434.346 178.331 434.346C179.055 434.346 179.654 434.169 180.127 433.815C180.6 433.466 180.836 432.908 180.836 432.141L180.836 430.21L180.715 430.21C180.6 430.419 180.434 430.651 180.216 430.907C180.003 431.163 179.709 431.384 179.334 431.572C178.959 431.759 178.471 431.853 177.87 431.853C177.095 431.853 176.396 431.672 175.774 431.31C175.156 430.943 174.666 430.404 174.304 429.692C173.946 428.977 173.767 428.097 173.767 427.053C173.767 426.009 173.944 425.114 174.297 424.368C174.655 423.622 175.145 423.051 175.767 422.655C176.39 422.254 177.095 422.054 177.883 422.054C178.493 422.054 178.985 422.156 179.36 422.361C179.735 422.561 180.027 422.795 180.235 423.064C180.449 423.332 180.613 423.569 180.728 423.773L180.868 423.773L180.868 422.182L182.741 422.182L182.741 432.217C182.741 433.061 182.545 433.754 182.153 434.295C181.761 434.836 181.23 435.237 180.561 435.496C179.897 435.756 179.147 435.886 178.311 435.886ZM178.292 430.268C178.842 430.268 179.306 430.14 179.686 429.884C180.069 429.624 180.359 429.254 180.555 428.772C180.755 428.286 180.855 427.705 180.855 427.027C180.855 426.367 180.757 425.785 180.561 425.282C180.365 424.779 180.078 424.387 179.699 424.106C179.319 423.82 178.85 423.678 178.292 423.678C177.717 423.678 177.238 423.827 176.854 424.125C176.471 424.419 176.181 424.82 175.985 425.327C175.793 425.834 175.697 426.401 175.697 427.027C175.697 427.67 175.795 428.235 175.991 428.721C176.187 429.207 176.477 429.586 176.86 429.859C177.248 430.131 177.725 430.268 178.292 430.268ZM185.304 432L185.304 422.182L187.216 422.182L187.216 432L185.304 432ZM186.27 420.667C185.937 420.667 185.652 420.556 185.413 420.335C185.179 420.109 185.061 419.84 185.061 419.529C185.061 419.214 185.179 418.945 185.413 418.724C185.652 418.498 185.937 418.385 186.27 418.385C186.602 418.385 186.885 418.498 187.12 418.724C187.358 418.945 187.478 419.214 187.478 419.529C187.478 419.84 187.358 420.109 187.12 420.335C186.885 420.556 186.602 420.667 186.27 420.667ZM191.698 426.17L191.698 432L189.787 432L189.787 422.182L191.621 422.182L191.621 423.78L191.743 423.78C191.969 423.26 192.322 422.842 192.804 422.527C193.29 422.212 193.901 422.054 194.638 422.054C195.307 422.054 195.893 422.195 196.396 422.476C196.899 422.753 197.289 423.166 197.566 423.716C197.843 424.266 197.981 424.945 197.981 425.755L197.981 432L196.07 432L196.07 425.985C196.07 425.273 195.885 424.717 195.514 424.317C195.143 423.912 194.634 423.71 193.986 423.71C193.543 423.71 193.149 423.805 192.804 423.997C192.463 424.189 192.192 424.47 191.992 424.841C191.796 425.207 191.698 425.651 191.698 426.17Z" fill="#FAFAFA"/>
<path d="M113.877 479L113.877 449.832L124.815 449.832C127.056 449.832 128.936 450.249 130.455 451.085C131.984 451.92 133.137 453.069 133.916 454.532C134.704 455.984 135.098 457.636 135.098 459.488C135.098 461.358 134.704 463.02 133.916 464.473C133.128 465.926 131.965 467.07 130.427 467.905C128.888 468.731 126.994 469.144 124.744 469.144L117.495 469.144L117.495 464.8L124.032 464.8C125.342 464.8 126.415 464.572 127.251 464.117C128.086 463.661 128.703 463.034 129.102 462.237C129.51 461.439 129.715 460.523 129.715 459.488C129.715 458.453 129.51 457.541 129.102 456.753C128.703 455.965 128.081 455.353 127.236 454.916C126.401 454.47 125.323 454.247 124.003 454.247L119.161 454.247L119.161 479L113.877 479ZM148.689 479.427C146.553 479.427 144.701 478.957 143.134 478.017C141.568 477.077 140.352 475.762 139.488 474.072C138.634 472.382 138.207 470.407 138.207 468.147C138.207 465.888 138.634 463.908 139.488 462.208C140.352 460.509 141.568 459.189 143.134 458.249C144.701 457.309 146.553 456.839 148.689 456.839C150.825 456.839 152.677 457.309 154.244 458.249C155.81 459.189 157.021 460.509 157.875 462.208C158.739 463.908 159.171 465.888 159.171 468.147C159.171 470.407 158.739 472.382 157.875 474.072C157.021 475.762 155.81 477.077 154.244 478.017C152.677 478.957 150.825 479.427 148.689 479.427ZM148.718 475.297C149.876 475.297 150.844 474.979 151.623 474.343C152.402 473.697 152.981 472.833 153.361 471.751C153.75 470.668 153.944 469.462 153.944 468.133C153.944 466.794 153.75 465.584 153.361 464.501C152.981 463.409 152.402 462.541 151.623 461.895C150.844 461.249 149.876 460.926 148.718 460.926C147.531 460.926 146.543 461.249 145.755 461.895C144.976 462.541 144.393 463.409 144.003 464.501C143.623 465.584 143.434 466.794 143.434 468.133C143.434 469.462 143.623 470.668 144.003 471.751C144.393 472.833 144.976 473.697 145.755 474.343C146.543 474.979 147.531 475.297 148.718 475.297ZM167.436 479L161.254 457.124L166.51 457.124L170.355 472.506L170.555 472.506L174.486 457.124L179.684 457.124L183.615 472.42L183.829 472.42L187.617 457.124L192.887 457.124L186.691 479L181.322 479L177.22 464.216L176.921 464.216L172.819 479L167.436 479ZM205.545 479.427C203.351 479.427 201.457 478.972 199.862 478.06C198.276 477.139 197.056 475.838 196.202 474.158C195.347 472.468 194.92 470.478 194.92 468.19C194.92 465.94 195.347 463.965 196.202 462.265C197.066 460.556 198.272 459.227 199.819 458.277C201.367 457.318 203.185 456.839 205.274 456.839C206.622 456.839 207.895 457.057 209.091 457.494C210.297 457.921 211.36 458.586 212.281 459.488C213.212 460.39 213.943 461.539 214.475 462.935C215.006 464.321 215.272 465.973 215.272 467.891L215.272 469.472L197.341 469.472L197.341 465.997L210.33 465.997C210.321 465.009 210.107 464.131 209.689 463.362C209.272 462.583 208.688 461.971 207.937 461.525C207.197 461.078 206.333 460.855 205.345 460.855C204.291 460.855 203.366 461.112 202.568 461.624C201.771 462.128 201.149 462.792 200.702 463.618C200.266 464.435 200.042 465.332 200.033 466.31L200.033 469.344C200.033 470.616 200.266 471.708 200.731 472.619C201.196 473.521 201.846 474.215 202.682 474.699C203.518 475.174 204.496 475.411 205.616 475.411C206.366 475.411 207.045 475.307 207.653 475.098C208.26 474.879 208.787 474.561 209.234 474.143C209.68 473.726 210.017 473.208 210.245 472.591L215.059 473.132C214.755 474.404 214.176 475.515 213.321 476.465C212.476 477.405 211.394 478.136 210.074 478.658C208.754 479.171 207.244 479.427 205.545 479.427ZM219.634 479L219.634 457.124L224.633 457.124L224.633 460.77L224.861 460.77C225.26 459.507 225.943 458.534 226.912 457.85C227.89 457.157 229.006 456.81 230.259 456.81C230.544 456.81 230.862 456.825 231.213 456.853C231.574 456.872 231.873 456.905 232.11 456.953L232.11 461.696C231.892 461.62 231.546 461.553 231.071 461.496C230.606 461.43 230.154 461.396 229.718 461.396C228.778 461.396 227.933 461.601 227.183 462.009C226.442 462.408 225.858 462.963 225.431 463.675C225.003 464.387 224.79 465.209 224.79 466.139L224.79 479L219.634 479ZM247.791 457.124L247.791 461.112L234.859 461.112L234.859 457.124L247.791 457.124ZM238.092 479L238.092 455.059C238.092 453.587 238.396 452.362 239.004 451.384C239.621 450.406 240.447 449.675 241.482 449.191C242.517 448.706 243.666 448.464 244.929 448.464C245.821 448.464 246.614 448.536 247.307 448.678C248 448.82 248.513 448.949 248.845 449.062L247.82 453.05C247.601 452.984 247.326 452.917 246.994 452.851C246.661 452.775 246.291 452.737 245.883 452.737C244.924 452.737 244.245 452.97 243.846 453.435C243.457 453.891 243.262 454.546 243.262 455.4L243.262 479L238.092 479ZM265.772 469.799L265.772 457.124L270.928 457.124L270.928 479L265.929 479L265.929 475.112L265.701 475.112C265.207 476.337 264.396 477.338 263.266 478.117C262.145 478.896 260.764 479.285 259.121 479.285C257.687 479.285 256.42 478.967 255.318 478.331C254.227 477.685 253.372 476.75 252.755 475.525C252.138 474.291 251.829 472.8 251.829 471.053L251.829 457.124L256.985 457.124L256.985 470.255C256.985 471.641 257.365 472.743 258.124 473.559C258.884 474.376 259.881 474.784 261.115 474.784C261.875 474.784 262.611 474.599 263.323 474.229C264.035 473.859 264.619 473.308 265.075 472.577C265.54 471.836 265.772 470.91 265.772 469.799ZM281.386 449.832L281.386 479L276.23 479L276.23 449.832L281.386 449.832ZM307.716 457.124L307.716 461.112L294.784 461.112L294.784 457.124L307.716 457.124ZM298.017 479L298.017 455.059C298.017 453.587 298.321 452.362 298.929 451.384C299.546 450.406 300.372 449.675 301.407 449.191C302.442 448.706 303.591 448.464 304.854 448.464C305.746 448.464 306.539 448.536 307.232 448.678C307.925 448.82 308.438 448.949 308.77 449.062L307.745 453.05C307.526 452.984 307.251 452.917 306.919 452.851C306.586 452.775 306.216 452.737 305.808 452.737C304.849 452.737 304.17 452.97 303.771 453.435C303.382 453.891 303.187 454.546 303.187 455.4L303.187 479L298.017 479ZM320.474 479.427C318.338 479.427 316.486 478.957 314.919 478.017C313.353 477.077 312.137 475.762 311.273 474.072C310.419 472.382 309.992 470.407 309.992 468.147C309.992 465.888 310.419 463.908 311.273 462.208C312.137 460.509 313.353 459.189 314.919 458.249C316.486 457.309 318.338 456.839 320.474 456.839C322.61 456.839 324.462 457.309 326.029 458.249C327.595 459.189 328.806 460.509 329.66 462.208C330.524 463.908 330.956 465.888 330.956 468.147C330.956 470.407 330.524 472.382 329.66 474.072C328.806 475.762 327.595 477.077 326.029 478.017C324.462 478.957 322.61 479.427 320.474 479.427ZM320.503 475.297C321.661 475.297 322.629 474.979 323.408 474.343C324.187 473.697 324.766 472.833 325.146 471.751C325.535 470.668 325.729 469.462 325.729 468.133C325.729 466.794 325.535 465.584 325.146 464.501C324.766 463.409 324.187 462.541 323.408 461.895C322.629 461.249 321.661 460.926 320.503 460.926C319.316 460.926 318.328 461.249 317.54 461.895C316.761 462.541 316.178 463.409 315.788 464.501C315.408 465.584 315.219 466.794 315.219 468.133C315.219 469.462 315.408 470.668 315.788 471.751C316.178 472.833 316.761 473.697 317.54 474.343C318.328 474.979 319.316 475.297 320.503 475.297ZM335.332 479L335.332 457.124L340.332 457.124L340.332 460.77L340.559 460.77C340.958 459.507 341.642 458.534 342.61 457.85C343.588 457.157 344.704 456.81 345.957 456.81C346.242 456.81 346.56 456.825 346.912 456.853C347.272 456.872 347.571 456.905 347.809 456.953L347.809 461.696C347.59 461.62 347.244 461.553 346.769 461.496C346.304 461.43 345.853 461.396 345.416 461.396C344.476 461.396 343.631 461.601 342.881 462.009C342.14 462.408 341.556 462.963 341.129 463.675C340.702 464.387 340.488 465.209 340.488 466.139L340.488 479L335.332 479ZM369.301 479.385C367.582 479.385 366.044 478.943 364.686 478.06C363.328 477.177 362.255 475.895 361.467 474.215C360.679 472.534 360.285 470.493 360.285 468.09C360.285 465.66 360.684 463.609 361.482 461.938C362.289 460.257 363.376 458.989 364.743 458.135C366.11 457.271 367.634 456.839 369.315 456.839C370.597 456.839 371.651 457.057 372.477 457.494C373.303 457.921 373.958 458.439 374.442 459.046C374.926 459.645 375.301 460.21 375.567 460.741L375.781 460.741L375.781 449.832L380.951 449.832L380.951 479L375.881 479L375.881 475.553L375.567 475.553C375.301 476.085 374.917 476.65 374.414 477.248C373.91 477.837 373.246 478.34 372.42 478.758C371.594 479.176 370.554 479.385 369.301 479.385ZM370.739 475.155C371.831 475.155 372.762 474.86 373.531 474.272C374.3 473.673 374.884 472.843 375.282 471.779C375.681 470.716 375.881 469.477 375.881 468.062C375.881 466.647 375.681 465.418 375.282 464.373C374.893 463.329 374.314 462.517 373.545 461.938C372.785 461.358 371.85 461.069 370.739 461.069C369.59 461.069 368.631 461.368 367.862 461.966C367.093 462.564 366.514 463.39 366.125 464.444C365.735 465.498 365.541 466.704 365.541 468.062C365.541 469.429 365.735 470.649 366.125 471.722C366.523 472.786 367.107 473.626 367.876 474.243C368.655 474.851 369.609 475.155 370.739 475.155ZM396.13 479.427C393.936 479.427 392.042 478.972 390.447 478.06C388.861 477.139 387.641 475.838 386.787 474.158C385.932 472.468 385.505 470.478 385.505 468.19C385.505 465.94 385.932 463.965 386.787 462.265C387.651 460.556 388.857 459.227 390.404 458.277C391.952 457.318 393.77 456.839 395.859 456.839C397.207 456.839 398.48 457.057 399.676 457.494C400.882 457.921 401.945 458.586 402.866 459.488C403.797 460.39 404.528 461.539 405.06 462.935C405.591 464.321 405.857 465.973 405.857 467.891L405.857 469.472L387.926 469.472L387.926 465.997L400.915 465.997C400.906 465.009 400.692 464.131 400.274 463.362C399.857 462.583 399.273 461.971 398.523 461.525C397.782 461.078 396.918 460.855 395.93 460.855C394.876 460.855 393.951 461.112 393.153 461.624C392.356 462.128 391.734 462.792 391.287 463.618C390.851 464.435 390.627 465.332 390.618 466.31L390.618 469.344C390.618 470.616 390.851 471.708 391.316 472.619C391.781 473.521 392.431 474.215 393.267 474.699C394.103 475.174 395.081 475.411 396.201 475.411C396.951 475.411 397.63 475.307 398.238 475.098C398.845 474.879 399.372 474.561 399.819 474.143C400.265 473.726 400.602 473.208 400.83 472.591L405.644 473.132C405.34 474.404 404.761 475.515 403.906 476.465C403.061 477.405 401.979 478.136 400.659 478.658C399.339 479.171 397.829 479.427 396.13 479.427ZM429.133 457.124L421.342 479L415.645 479L407.855 457.124L413.352 457.124L418.38 473.374L418.608 473.374L423.65 457.124L429.133 457.124ZM441.641 479.427C439.448 479.427 437.554 478.972 435.959 478.06C434.373 477.139 433.153 475.838 432.298 474.158C431.444 472.468 431.017 470.478 431.017 468.19C431.017 465.94 431.444 463.965 432.298 462.265C433.162 460.556 434.368 459.227 435.916 458.277C437.464 457.318 439.282 456.839 441.371 456.839C442.719 456.839 443.991 457.057 445.188 457.494C446.394 457.921 447.457 458.586 448.378 459.488C449.309 460.39 450.04 461.539 450.571 462.935C451.103 464.321 451.369 465.973 451.369 467.891L451.369 469.472L433.438 469.472L433.438 465.997L446.427 465.997C446.417 465.009 446.204 464.131 445.786 463.362C445.368 462.583 444.784 461.971 444.034 461.525C443.294 461.078 442.43 460.855 441.442 460.855C440.388 460.855 439.462 461.112 438.665 461.624C437.867 462.128 437.245 462.792 436.799 463.618C436.362 464.435 436.139 465.332 436.13 466.31L436.13 469.344C436.13 470.616 436.362 471.708 436.827 472.619C437.293 473.521 437.943 474.215 438.779 474.699C439.614 475.174 440.592 475.411 441.713 475.411C442.463 475.411 443.142 475.307 443.749 475.098C444.357 474.879 444.884 474.561 445.33 474.143C445.776 473.726 446.114 473.208 446.341 472.591L451.155 473.132C450.852 474.404 450.272 475.515 449.418 476.465C448.573 477.405 447.49 478.136 446.171 478.658C444.851 479.171 443.341 479.427 441.641 479.427ZM460.887 449.832L460.887 479L455.731 479L455.731 449.832L460.887 449.832ZM475.731 479.427C473.594 479.427 471.743 478.957 470.176 478.017C468.609 477.077 467.394 475.762 466.53 474.072C465.676 472.382 465.248 470.407 465.248 468.147C465.248 465.888 465.676 463.908 466.53 462.208C467.394 460.509 468.609 459.189 470.176 458.249C471.743 457.309 473.594 456.839 475.731 456.839C477.867 456.839 479.719 457.309 481.285 458.249C482.852 459.189 484.062 460.509 484.917 462.208C485.781 463.908 486.213 465.888 486.213 468.147C486.213 470.407 485.781 472.382 484.917 474.072C484.062 475.762 482.852 477.077 481.285 478.017C479.719 478.957 477.867 479.427 475.731 479.427ZM475.759 475.297C476.918 475.297 477.886 474.979 478.665 474.343C479.443 473.697 480.022 472.833 480.402 471.751C480.791 470.668 480.986 469.462 480.986 468.133C480.986 466.794 480.791 465.584 480.402 464.501C480.022 463.409 479.443 462.541 478.665 461.895C477.886 461.249 476.918 460.926 475.759 460.926C474.572 460.926 473.585 461.249 472.797 461.895C472.018 462.541 471.434 463.409 471.045 464.501C470.665 465.584 470.475 466.794 470.475 468.133C470.475 469.462 470.665 470.668 471.045 471.751C471.434 472.833 472.018 473.697 472.797 474.343C473.585 474.979 474.572 475.297 475.759 475.297ZM490.589 487.204L490.589 457.124L495.659 457.124L495.659 460.741L495.958 460.741C496.224 460.21 496.599 459.645 497.084 459.046C497.568 458.439 498.223 457.921 499.049 457.494C499.875 457.057 500.929 456.839 502.211 456.839C503.901 456.839 505.425 457.271 506.783 458.135C508.15 458.989 509.232 460.257 510.03 461.938C510.837 463.609 511.241 465.66 511.241 468.09C511.241 470.493 510.847 472.534 510.058 474.215C509.27 475.895 508.197 477.177 506.84 478.06C505.482 478.943 503.944 479.385 502.225 479.385C500.972 479.385 499.932 479.176 499.106 478.758C498.28 478.34 497.615 477.837 497.112 477.248C496.618 476.65 496.234 476.085 495.958 475.553L495.745 475.553L495.745 487.204L490.589 487.204ZM495.645 468.062C495.645 469.477 495.845 470.716 496.243 471.779C496.652 472.843 497.236 473.673 497.995 474.272C498.764 474.86 499.695 475.155 500.787 475.155C501.926 475.155 502.88 474.851 503.649 474.243C504.418 473.626 504.998 472.786 505.387 471.722C505.786 470.649 505.985 469.429 505.985 468.062C505.985 466.704 505.791 465.498 505.401 464.444C505.012 463.39 504.433 462.564 503.664 461.966C502.895 461.368 501.936 461.069 500.787 461.069C499.685 461.069 498.75 461.358 497.981 461.938C497.212 462.517 496.628 463.329 496.229 464.373C495.84 465.418 495.645 466.647 495.645 468.062ZM525.341 479.427C523.147 479.427 521.253 478.972 519.658 478.06C518.072 477.139 516.852 475.838 515.998 474.158C515.143 472.468 514.716 470.478 514.716 468.19C514.716 465.94 515.143 463.965 515.998 462.265C516.862 460.556 518.067 459.227 519.615 458.277C521.163 457.318 522.981 456.839 525.07 456.839C526.418 456.839 527.691 457.057 528.887 457.494C530.093 457.921 531.156 458.586 532.077 459.488C533.008 460.39 533.739 461.539 534.271 462.935C534.802 464.321 535.068 465.973 535.068 467.891L535.068 469.472L517.137 469.472L517.137 465.997L530.126 465.997C530.117 465.009 529.903 464.131 529.485 463.362C529.067 462.583 528.483 461.971 527.733 461.525C526.993 461.078 526.129 460.855 525.141 460.855C524.087 460.855 523.162 461.112 522.364 461.624C521.566 462.128 520.944 462.792 520.498 463.618C520.061 464.435 519.838 465.332 519.829 466.31L519.829 469.344C519.829 470.616 520.061 471.708 520.527 472.619C520.992 473.521 521.642 474.215 522.478 474.699C523.313 475.174 524.291 475.411 525.412 475.411C526.162 475.411 526.841 475.307 527.448 475.098C528.056 474.879 528.583 474.561 529.029 474.143C529.476 473.726 529.813 473.208 530.041 472.591L534.855 473.132C534.551 474.404 533.972 475.515 533.117 476.465C532.272 477.405 531.189 478.136 529.87 478.658C528.55 479.171 527.04 479.427 525.341 479.427ZM539.43 479L539.43 457.124L544.429 457.124L544.429 460.77L544.657 460.77C545.056 459.507 545.739 458.534 546.708 457.85C547.686 457.157 548.801 456.81 550.055 456.81C550.34 456.81 550.658 456.825 551.009 456.853C551.37 456.872 551.669 456.905 551.906 456.953L551.906 461.695C551.688 461.62 551.341 461.553 550.867 461.496C550.401 461.43 549.95 461.396 549.514 461.396C548.574 461.396 547.729 461.601 546.978 462.009C546.238 462.408 545.654 462.963 545.227 463.675C544.799 464.387 544.586 465.209 544.586 466.139L544.586 479L539.43 479ZM572.622 462.906L567.922 463.419C567.789 462.944 567.556 462.498 567.224 462.08C566.901 461.662 566.464 461.325 565.914 461.069C565.363 460.812 564.689 460.684 563.891 460.684C562.818 460.684 561.916 460.917 561.185 461.382C560.464 461.847 560.108 462.45 560.117 463.191C560.108 463.827 560.34 464.345 560.815 464.743C561.299 465.142 562.097 465.47 563.208 465.726L566.939 466.524C569.009 466.97 570.547 467.677 571.554 468.646C572.57 469.614 573.082 470.882 573.092 472.449C573.082 473.825 572.679 475.041 571.881 476.095C571.093 477.139 569.997 477.956 568.591 478.544C567.186 479.133 565.572 479.427 563.749 479.427C561.071 479.427 558.916 478.867 557.283 477.747C555.65 476.617 554.676 475.045 554.363 473.032L559.391 472.548C559.619 473.536 560.103 474.281 560.843 474.784C561.584 475.288 562.548 475.539 563.735 475.539C564.959 475.539 565.942 475.288 566.683 474.784C567.433 474.281 567.808 473.659 567.808 472.919C567.808 472.292 567.566 471.774 567.082 471.366C566.607 470.958 565.866 470.644 564.86 470.426L561.128 469.643C559.03 469.206 557.477 468.47 556.471 467.435C555.465 466.391 554.966 465.071 554.976 463.476C554.966 462.128 555.332 460.96 556.072 459.972C556.822 458.975 557.862 458.206 559.191 457.665C560.53 457.114 562.073 456.839 563.82 456.839C566.384 456.839 568.401 457.385 569.873 458.477C571.354 459.569 572.271 461.045 572.622 462.906ZM580.519 479.313C579.655 479.313 578.915 479.01 578.297 478.402C577.68 477.794 577.376 477.054 577.386 476.18C577.376 475.325 577.68 474.594 578.297 473.987C578.915 473.379 579.655 473.075 580.519 473.075C581.355 473.075 582.081 473.379 582.698 473.987C583.325 474.594 583.643 475.325 583.653 476.18C583.643 476.759 583.491 477.286 583.197 477.761C582.912 478.236 582.532 478.615 582.057 478.9C581.592 479.176 581.08 479.313 580.519 479.313ZM113.877 528L113.877 498.832L132.563 498.832L132.563 503.261L119.161 503.261L119.161 511.18L131.281 511.18L131.281 515.609L119.161 515.609L119.161 528L113.877 528ZM143.248 528.442C141.862 528.442 140.614 528.195 139.503 527.701C138.401 527.198 137.528 526.457 136.882 525.479C136.246 524.501 135.928 523.295 135.928 521.862C135.928 520.627 136.156 519.607 136.611 518.799C137.067 517.992 137.689 517.347 138.477 516.862C139.265 516.378 140.153 516.013 141.141 515.766C142.138 515.509 143.168 515.324 144.231 515.21C145.513 515.077 146.553 514.959 147.35 514.854C148.148 514.74 148.727 514.569 149.088 514.342C149.458 514.104 149.643 513.739 149.643 513.245L149.643 513.159C149.643 512.087 149.325 511.256 148.689 510.667C148.053 510.078 147.137 509.784 145.94 509.784C144.677 509.784 143.676 510.059 142.935 510.61C142.204 511.161 141.71 511.811 141.454 512.561L136.64 511.878C137.02 510.548 137.646 509.437 138.52 508.545C139.393 507.643 140.462 506.969 141.724 506.522C142.987 506.067 144.383 505.839 145.912 505.839C146.966 505.839 148.015 505.962 149.059 506.209C150.104 506.456 151.058 506.864 151.922 507.434C152.786 507.994 153.479 508.759 154.001 509.727C154.533 510.696 154.799 511.906 154.799 513.359L154.799 528L149.843 528L149.843 524.995L149.672 524.995C149.358 525.603 148.917 526.172 148.347 526.704C147.787 527.226 147.08 527.649 146.225 527.972C145.38 528.285 144.388 528.442 143.248 528.442ZM144.587 524.653C145.622 524.653 146.519 524.449 147.279 524.041C148.039 523.623 148.623 523.072 149.031 522.389C149.449 521.705 149.658 520.96 149.658 520.152L149.658 517.575C149.496 517.708 149.221 517.831 148.831 517.945C148.452 518.059 148.024 518.159 147.55 518.244C147.075 518.329 146.605 518.405 146.14 518.472C145.674 518.538 145.271 518.595 144.929 518.643C144.16 518.747 143.472 518.918 142.864 519.156C142.256 519.393 141.777 519.725 141.425 520.152C141.074 520.57 140.898 521.111 140.898 521.776C140.898 522.726 141.245 523.442 141.938 523.927C142.631 524.411 143.514 524.653 144.587 524.653ZM177.274 511.906L172.574 512.419C172.441 511.944 172.208 511.498 171.876 511.08C171.553 510.662 171.116 510.325 170.565 510.069C170.015 509.812 169.341 509.684 168.543 509.684C167.47 509.684 166.568 509.917 165.837 510.382C165.115 510.847 164.759 511.45 164.769 512.191C164.759 512.827 164.992 513.345 165.467 513.743C165.951 514.142 166.748 514.47 167.859 514.726L171.591 515.524C173.661 515.97 175.199 516.677 176.205 517.646C177.221 518.614 177.734 519.882 177.744 521.449C177.734 522.825 177.331 524.041 176.533 525.095C175.745 526.139 174.648 526.956 173.243 527.544C171.838 528.133 170.224 528.427 168.401 528.427C165.723 528.427 163.568 527.867 161.934 526.747C160.301 525.617 159.328 524.045 159.015 522.032L164.042 521.548C164.27 522.536 164.754 523.281 165.495 523.784C166.236 524.288 167.199 524.539 168.386 524.539C169.611 524.539 170.594 524.288 171.334 523.784C172.085 523.281 172.46 522.659 172.46 521.919C172.46 521.292 172.218 520.774 171.733 520.366C171.259 519.958 170.518 519.645 169.511 519.426L165.78 518.643C163.682 518.206 162.129 517.47 161.123 516.435C160.116 515.391 159.618 514.071 159.627 512.476C159.618 511.128 159.983 509.96 160.724 508.972C161.474 507.975 162.514 507.206 163.843 506.665C165.182 506.114 166.725 505.839 168.472 505.839C171.035 505.839 173.053 506.385 174.525 507.477C176.006 508.569 176.922 510.045 177.274 511.906ZM192.919 506.124L192.919 510.112L180.343 510.112L180.343 506.124L192.919 506.124ZM183.448 500.882L188.603 500.882L188.603 521.42C188.603 522.113 188.708 522.645 188.917 523.015C189.135 523.376 189.42 523.623 189.771 523.756C190.123 523.889 190.512 523.955 190.939 523.955C191.262 523.955 191.556 523.931 191.822 523.884C192.098 523.837 192.306 523.794 192.449 523.756L193.318 527.786C193.042 527.881 192.648 527.986 192.136 528.1C191.632 528.214 191.015 528.28 190.284 528.299C188.993 528.337 187.83 528.142 186.795 527.715C185.76 527.278 184.938 526.604 184.331 525.693C183.733 524.781 183.438 523.642 183.448 522.275L183.448 500.882ZM218.26 506.124L218.26 510.112L205.328 510.112L205.328 506.124L218.26 506.124ZM208.561 528L208.561 504.059C208.561 502.587 208.864 501.362 209.472 500.384C210.089 499.406 210.915 498.675 211.95 498.191C212.985 497.706 214.134 497.464 215.397 497.464C216.289 497.464 217.082 497.536 217.775 497.678C218.469 497.82 218.981 497.949 219.314 498.062L218.288 502.05C218.07 501.984 217.794 501.917 217.462 501.851C217.13 501.775 216.759 501.737 216.351 501.737C215.392 501.737 214.713 501.97 214.315 502.435C213.925 502.891 213.731 503.546 213.731 504.4L213.731 528L208.561 528ZM231.017 528.427C228.881 528.427 227.029 527.957 225.463 527.017C223.896 526.077 222.681 524.762 221.817 523.072C220.962 521.382 220.535 519.407 220.535 517.147C220.535 514.888 220.962 512.908 221.817 511.208C222.681 509.509 223.896 508.189 225.463 507.249C227.029 506.309 228.881 505.839 231.017 505.839C233.154 505.839 235.005 506.309 236.572 507.249C238.139 508.189 239.349 509.509 240.204 511.208C241.068 512.908 241.5 514.888 241.5 517.147C241.5 519.407 241.068 521.382 240.204 523.072C239.349 524.762 238.139 526.077 236.572 527.017C235.005 527.957 233.154 528.427 231.017 528.427ZM231.046 524.297C232.204 524.297 233.173 523.979 233.951 523.343C234.73 522.697 235.309 521.833 235.689 520.751C236.078 519.668 236.273 518.462 236.273 517.133C236.273 515.794 236.078 514.584 235.689 513.501C235.309 512.409 234.73 511.541 233.951 510.895C233.173 510.249 232.204 509.926 231.046 509.926C229.859 509.926 228.871 510.249 228.083 510.895C227.305 511.541 226.721 512.409 226.332 513.501C225.952 514.584 225.762 515.794 225.762 517.133C225.762 518.462 225.952 519.668 226.332 520.751C226.721 521.833 227.305 522.697 228.083 523.343C228.871 523.979 229.859 524.297 231.046 524.297ZM245.876 528L245.876 506.124L250.875 506.124L250.875 509.77L251.103 509.77C251.502 508.507 252.185 507.534 253.154 506.85C254.132 506.157 255.247 505.81 256.501 505.81C256.785 505.81 257.104 505.825 257.455 505.853C257.816 505.872 258.115 505.905 258.352 505.953L258.352 510.696C258.134 510.62 257.787 510.553 257.312 510.496C256.847 510.43 256.396 510.396 255.959 510.396C255.019 510.396 254.174 510.601 253.424 511.009C252.684 511.408 252.1 511.963 251.672 512.675C251.245 513.387 251.032 514.209 251.032 515.139L251.032 528L245.876 528ZM281.411 528.427C279.217 528.427 277.323 527.972 275.728 527.06C274.142 526.139 272.922 524.838 272.068 523.158C271.213 521.468 270.786 519.478 270.786 517.19C270.786 514.94 271.213 512.965 272.068 511.265C272.932 509.556 274.137 508.227 275.685 507.277C277.233 506.318 279.051 505.839 281.14 505.839C282.488 505.839 283.761 506.057 284.957 506.494C286.163 506.921 287.226 507.586 288.147 508.488C289.078 509.39 289.809 510.539 290.341 511.935C290.872 513.321 291.138 514.973 291.138 516.891L291.138 518.472L273.207 518.472L273.207 514.997L286.196 514.997C286.187 514.009 285.973 513.131 285.555 512.362C285.137 511.583 284.553 510.971 283.803 510.525C283.063 510.078 282.199 509.855 281.211 509.855C280.157 509.855 279.232 510.112 278.434 510.624C277.636 511.128 277.014 511.792 276.568 512.618C276.131 513.435 275.908 514.332 275.899 515.31L275.899 518.344C275.899 519.616 276.131 520.708 276.597 521.619C277.062 522.521 277.712 523.215 278.548 523.699C279.383 524.174 280.361 524.411 281.482 524.411C282.232 524.411 282.911 524.307 283.518 524.098C284.126 523.879 284.653 523.561 285.099 523.143C285.546 522.726 285.883 522.208 286.111 521.591L290.925 522.132C290.621 523.404 290.042 524.515 289.187 525.465C288.342 526.405 287.26 527.136 285.94 527.658C284.62 528.171 283.11 528.427 281.411 528.427ZM314.414 506.124L306.623 528L300.926 528L293.136 506.124L298.633 506.124L303.661 522.374L303.889 522.374L308.931 506.124L314.414 506.124ZM326.922 528.427C324.729 528.427 322.835 527.972 321.24 527.06C319.654 526.139 318.434 524.838 317.579 523.158C316.725 521.468 316.297 519.478 316.297 517.19C316.297 514.94 316.725 512.965 317.579 511.265C318.443 509.556 319.649 508.227 321.197 507.277C322.744 506.318 324.563 505.839 326.652 505.839C328 505.839 329.272 506.057 330.469 506.494C331.674 506.921 332.738 507.586 333.659 508.488C334.589 509.39 335.321 510.539 335.852 511.935C336.384 513.321 336.65 514.973 336.65 516.891L336.65 518.472L318.719 518.472L318.719 514.997L331.708 514.997C331.698 514.009 331.485 513.131 331.067 512.362C330.649 511.583 330.065 510.971 329.315 510.525C328.574 510.078 327.71 509.855 326.723 509.855C325.669 509.855 324.743 510.112 323.946 510.624C323.148 511.128 322.526 511.792 322.08 512.618C321.643 513.435 321.42 514.332 321.41 515.31L321.41 518.344C321.41 519.616 321.643 520.708 322.108 521.619C322.574 522.521 323.224 523.215 324.06 523.699C324.895 524.174 325.873 524.411 326.993 524.411C327.744 524.411 328.422 524.307 329.03 524.098C329.638 523.879 330.165 523.561 330.611 523.143C331.057 522.726 331.394 522.208 331.622 521.591L336.436 522.132C336.132 523.404 335.553 524.515 334.699 525.465C333.854 526.405 332.771 527.136 331.451 527.658C330.132 528.171 328.622 528.427 326.922 528.427ZM341.012 528L341.012 506.124L346.011 506.124L346.011 509.77L346.239 509.77C346.637 508.507 347.321 507.534 348.289 506.85C349.267 506.157 350.383 505.81 351.636 505.81C351.921 505.81 352.239 505.825 352.591 505.853C352.951 505.872 353.251 505.905 353.488 505.953L353.488 510.696C353.27 510.62 352.923 510.553 352.448 510.496C351.983 510.43 351.532 510.396 351.095 510.396C350.155 510.396 349.31 510.601 348.56 511.009C347.819 511.408 347.236 511.963 346.808 512.675C346.381 513.387 346.167 514.209 346.167 515.139L346.167 528L341.012 528ZM360.784 536.204C360.081 536.204 359.431 536.147 358.832 536.033C358.244 535.928 357.774 535.805 357.422 535.662L358.619 531.646C359.369 531.864 360.038 531.969 360.627 531.959C361.216 531.95 361.733 531.765 362.179 531.404C362.635 531.053 363.02 530.464 363.333 529.638L363.775 528.456L355.842 506.124L361.311 506.124L366.352 522.645L366.58 522.645L371.636 506.124L377.12 506.124L368.361 530.649C367.952 531.808 367.411 532.8 366.737 533.626C366.063 534.461 365.237 535.098 364.259 535.534C363.29 535.981 362.132 536.204 360.784 536.204ZM389.486 528.427C387.349 528.427 385.498 527.957 383.931 527.017C382.364 526.077 381.149 524.762 380.285 523.072C379.431 521.382 379.003 519.407 379.003 517.147C379.003 514.888 379.431 512.908 380.285 511.208C381.149 509.509 382.364 508.189 383.931 507.249C385.498 506.309 387.349 505.839 389.486 505.839C391.622 505.839 393.474 506.309 395.04 507.249C396.607 508.189 397.817 509.509 398.672 511.208C399.536 512.908 399.968 514.888 399.968 517.147C399.968 519.407 399.536 521.382 398.672 523.072C397.817 524.762 396.607 526.077 395.04 527.017C393.474 527.957 391.622 528.427 389.486 528.427ZM389.514 524.297C390.673 524.297 391.641 523.979 392.42 523.343C393.198 522.697 393.777 521.833 394.157 520.751C394.546 519.668 394.741 518.462 394.741 517.133C394.741 515.794 394.546 514.584 394.157 513.501C393.777 512.409 393.198 511.541 392.42 510.895C391.641 510.249 390.673 509.926 389.514 509.926C388.327 509.926 387.34 510.249 386.552 510.895C385.773 511.541 385.189 512.409 384.8 513.501C384.42 514.584 384.23 515.794 384.23 517.133C384.23 518.462 384.42 519.668 384.8 520.751C385.189 521.833 385.773 522.697 386.552 523.343C387.34 523.979 388.327 524.297 389.514 524.297ZM409.5 515.182L409.5 528L404.344 528L404.344 506.124L409.272 506.124L409.272 509.841L409.528 509.841C410.032 508.616 410.834 507.643 411.935 506.921C413.046 506.2 414.418 505.839 416.051 505.839C417.561 505.839 418.876 506.162 419.997 506.807C421.126 507.453 422 508.388 422.617 509.613C423.244 510.838 423.552 512.324 423.543 514.071L423.543 528L418.387 528L418.387 514.869C418.387 513.406 418.007 512.262 417.248 511.436C416.498 510.61 415.458 510.197 414.129 510.197C413.227 510.197 412.424 510.396 411.722 510.795C411.029 511.184 410.483 511.749 410.084 512.49C409.695 513.231 409.5 514.128 409.5 515.182ZM438.469 528.427C436.276 528.427 434.381 527.972 432.786 527.06C431.201 526.139 429.98 524.838 429.126 523.158C428.271 521.468 427.844 519.478 427.844 517.19C427.844 514.94 428.271 512.965 429.126 511.265C429.99 509.556 431.196 508.227 432.743 507.277C434.291 506.318 436.109 505.839 438.198 505.839C439.547 505.839 440.819 506.057 442.015 506.494C443.221 506.921 444.285 507.586 445.206 508.488C446.136 509.39 446.867 510.539 447.399 511.935C447.931 513.321 448.197 514.973 448.197 516.891L448.197 518.472L430.265 518.472L430.265 514.997L443.254 514.997C443.245 514.009 443.031 513.131 442.613 512.362C442.196 511.583 441.612 510.971 440.862 510.525C440.121 510.078 439.257 509.855 438.27 509.855C437.216 509.855 436.29 510.112 435.492 510.624C434.695 511.128 434.073 511.792 433.627 512.618C433.19 513.435 432.967 514.332 432.957 515.31L432.957 518.344C432.957 519.616 433.19 520.708 433.655 521.619C434.12 522.521 434.771 523.215 435.606 523.699C436.442 524.174 437.42 524.411 438.54 524.411C439.29 524.411 439.969 524.307 440.577 524.098C441.185 523.879 441.711 523.561 442.158 523.143C442.604 522.726 442.941 522.208 443.169 521.591L447.983 522.132C447.679 523.404 447.1 524.515 446.245 525.465C445.4 526.405 444.318 527.136 442.998 527.658C441.678 528.171 440.169 528.427 438.469 528.427ZM455.734 528.313C454.87 528.313 454.13 528.01 453.513 527.402C452.895 526.794 452.592 526.054 452.601 525.18C452.592 524.325 452.895 523.594 453.513 522.987C454.13 522.379 454.87 522.075 455.734 522.075C456.57 522.075 457.296 522.379 457.913 522.987C458.54 523.594 458.858 524.325 458.868 525.18C458.858 525.759 458.706 526.286 458.412 526.761C458.127 527.236 457.747 527.615 457.273 527.9C456.807 528.176 456.295 528.313 455.734 528.313Z" fill="white"/>
<path d="M112.797 572.578L116.195 572.578C117.669 572.578 118.781 572.792 119.531 573.219C120.281 573.646 120.656 574.383 120.656 575.43C120.656 575.867 120.578 576.263 120.422 576.617C120.271 576.966 120.049 577.255 119.758 577.484C119.466 577.708 119.107 577.859 118.68 577.938L118.68 578.016C119.122 578.094 119.516 578.232 119.859 578.43C120.208 578.628 120.482 578.912 120.68 579.281C120.883 579.651 120.984 580.13 120.984 580.719C120.984 581.417 120.818 582.01 120.484 582.5C120.156 582.99 119.685 583.362 119.07 583.617C118.461 583.872 117.737 584 116.898 584L112.797 584L112.797 572.578ZM114.672 577.289L116.469 577.289C117.318 577.289 117.906 577.151 118.234 576.875C118.563 576.599 118.727 576.195 118.727 575.664C118.727 575.122 118.531 574.732 118.141 574.492C117.755 574.253 117.141 574.133 116.297 574.133L114.672 574.133L114.672 577.289ZM114.672 578.805L114.672 582.43L116.648 582.43C117.523 582.43 118.138 582.26 118.492 581.922C118.846 581.583 119.023 581.125 119.023 580.547C119.023 580.193 118.943 579.885 118.781 579.625C118.625 579.365 118.367 579.164 118.008 579.023C117.648 578.878 117.164 578.805 116.555 578.805L114.672 578.805ZM126.547 575.188C127.641 575.188 128.466 575.43 129.023 575.914C129.586 576.398 129.867 577.154 129.867 578.18L129.867 584L128.563 584L128.211 582.773L128.148 582.773C127.904 583.086 127.651 583.344 127.391 583.547C127.13 583.75 126.828 583.901 126.484 584C126.146 584.104 125.732 584.156 125.242 584.156C124.727 584.156 124.266 584.063 123.859 583.875C123.453 583.682 123.133 583.391 122.898 583C122.664 582.609 122.547 582.115 122.547 581.516C122.547 580.625 122.878 579.956 123.539 579.508C124.206 579.06 125.211 578.813 126.555 578.766L128.055 578.711L128.055 578.258C128.055 577.659 127.914 577.232 127.633 576.977C127.357 576.721 126.966 576.594 126.461 576.594C126.029 576.594 125.609 576.656 125.203 576.781C124.797 576.906 124.401 577.06 124.016 577.242L123.422 575.945C123.844 575.721 124.323 575.539 124.859 575.398C125.401 575.258 125.964 575.188 126.547 575.188ZM128.047 579.867L126.93 579.906C126.013 579.938 125.37 580.094 125 580.375C124.63 580.656 124.445 581.042 124.445 581.531C124.445 581.958 124.573 582.271 124.828 582.469C125.083 582.662 125.419 582.758 125.836 582.758C126.471 582.758 126.997 582.578 127.414 582.219C127.836 581.854 128.047 581.32 128.047 580.617L128.047 579.867ZM135.922 584.156C135.104 584.156 134.396 583.997 133.797 583.68C133.198 583.362 132.737 582.875 132.414 582.219C132.091 581.563 131.93 580.729 131.93 579.719C131.93 578.667 132.107 577.807 132.461 577.141C132.815 576.474 133.305 575.982 133.93 575.664C134.56 575.346 135.281 575.188 136.094 575.188C136.609 575.188 137.076 575.24 137.492 575.344C137.914 575.443 138.271 575.565 138.563 575.711L138.016 577.18C137.698 577.05 137.372 576.94 137.039 576.852C136.706 576.763 136.385 576.719 136.078 576.719C135.573 576.719 135.151 576.831 134.813 577.055C134.479 577.279 134.229 577.612 134.063 578.055C133.901 578.497 133.82 579.047 133.82 579.703C133.82 580.339 133.904 580.875 134.07 581.313C134.237 581.745 134.484 582.073 134.813 582.297C135.141 582.516 135.544 582.625 136.023 582.625C136.497 582.625 136.922 582.568 137.297 582.453C137.672 582.339 138.026 582.19 138.359 582.008L138.359 583.602C138.031 583.789 137.68 583.927 137.305 584.016C136.93 584.109 136.469 584.156 135.922 584.156ZM142.227 571.844L142.227 577.719C142.227 577.984 142.216 578.276 142.195 578.594C142.174 578.906 142.154 579.201 142.133 579.477L142.172 579.477C142.307 579.294 142.469 579.081 142.656 578.836C142.849 578.591 143.031 578.378 143.203 578.195L145.844 575.352L147.953 575.352L144.492 579.07L148.18 584L146.023 584L143.258 580.203L142.227 581.086L142.227 584L140.391 584L140.391 571.844L142.227 571.844ZM156.938 582.672C157.177 582.672 157.414 582.651 157.648 582.609C157.883 582.563 158.096 582.508 158.289 582.445L158.289 583.836C158.086 583.925 157.823 584 157.5 584.063C157.177 584.125 156.841 584.156 156.492 584.156C156.003 584.156 155.563 584.076 155.172 583.914C154.781 583.747 154.471 583.464 154.242 583.063C154.013 582.662 153.898 582.107 153.898 581.398L153.898 576.75L152.719 576.75L152.719 575.93L153.984 575.281L154.586 573.43L155.742 573.43L155.742 575.352L158.219 575.352L158.219 576.75L155.742 576.75L155.742 581.375C155.742 581.813 155.852 582.138 156.07 582.352C156.289 582.565 156.578 582.672 156.938 582.672ZM167.703 579.656C167.703 580.375 167.609 581.013 167.422 581.57C167.234 582.128 166.961 582.599 166.602 582.984C166.242 583.365 165.81 583.656 165.305 583.859C164.799 584.057 164.229 584.156 163.594 584.156C163 584.156 162.456 584.057 161.961 583.859C161.466 583.656 161.036 583.365 160.672 582.984C160.313 582.599 160.034 582.128 159.836 581.57C159.638 581.013 159.539 580.375 159.539 579.656C159.539 578.703 159.703 577.896 160.031 577.234C160.365 576.568 160.839 576.06 161.453 575.711C162.068 575.362 162.799 575.188 163.648 575.188C164.445 575.188 165.148 575.362 165.758 575.711C166.367 576.06 166.844 576.568 167.188 577.234C167.531 577.901 167.703 578.708 167.703 579.656ZM161.43 579.656C161.43 580.287 161.505 580.826 161.656 581.273C161.813 581.721 162.052 582.065 162.375 582.305C162.698 582.539 163.115 582.656 163.625 582.656C164.135 582.656 164.552 582.539 164.875 582.305C165.198 582.065 165.435 581.721 165.586 581.273C165.737 580.826 165.813 580.287 165.813 579.656C165.813 579.026 165.737 578.492 165.586 578.055C165.435 577.612 165.198 577.276 164.875 577.047C164.552 576.813 164.133 576.695 163.617 576.695C162.857 576.695 162.302 576.951 161.953 577.461C161.604 577.971 161.43 578.703 161.43 579.656ZM181.039 583.992L179.945 579.969C179.893 579.771 179.831 579.531 179.758 579.25C179.685 578.969 179.612 578.68 179.539 578.383C179.466 578.081 179.398 577.802 179.336 577.547C179.279 577.292 179.234 577.094 179.203 576.953L179.141 576.953C179.115 577.094 179.073 577.292 179.016 577.547C178.958 577.802 178.893 578.081 178.82 578.383C178.747 578.685 178.674 578.979 178.602 579.266C178.534 579.552 178.471 579.797 178.414 580L177.266 583.992L175.25 583.992L172.828 575.344L174.688 575.344L175.813 579.641C175.885 579.932 175.956 580.247 176.023 580.586C176.096 580.925 176.159 581.247 176.211 581.555C176.263 581.862 176.302 582.115 176.328 582.313L176.391 582.313C176.411 582.172 176.44 581.995 176.477 581.781C176.513 581.563 176.555 581.336 176.602 581.102C176.648 580.862 176.695 580.638 176.742 580.43C176.789 580.216 176.833 580.044 176.875 579.914L178.203 575.344L180.211 575.344L181.484 579.914C181.542 580.112 181.604 580.362 181.672 580.664C181.74 580.961 181.799 581.26 181.852 581.563C181.909 581.859 181.945 582.107 181.961 582.305L182.023 582.305C182.044 582.128 182.081 581.888 182.133 581.586C182.19 581.279 182.255 580.953 182.328 580.609C182.401 580.26 182.477 579.938 182.555 579.641L183.703 575.344L185.531 575.344L183.094 583.992L181.039 583.992ZM190.461 575.188C191.232 575.188 191.893 575.346 192.445 575.664C192.997 575.982 193.422 576.432 193.719 577.016C194.016 577.599 194.164 578.297 194.164 579.109L194.164 580.094L188.391 580.094C188.411 580.932 188.635 581.578 189.063 582.031C189.495 582.484 190.099 582.711 190.875 582.711C191.427 582.711 191.922 582.659 192.359 582.555C192.802 582.445 193.258 582.287 193.727 582.078L193.727 583.57C193.294 583.773 192.854 583.922 192.406 584.016C191.958 584.109 191.422 584.156 190.797 584.156C189.948 584.156 189.201 583.992 188.555 583.664C187.914 583.331 187.411 582.836 187.047 582.18C186.688 581.523 186.508 580.708 186.508 579.734C186.508 578.766 186.672 577.943 187 577.266C187.328 576.589 187.789 576.073 188.383 575.719C188.977 575.365 189.669 575.188 190.461 575.188ZM190.461 576.57C189.883 576.57 189.414 576.758 189.055 577.133C188.701 577.508 188.492 578.057 188.43 578.781L192.367 578.781C192.362 578.349 192.289 577.966 192.148 577.633C192.013 577.3 191.805 577.039 191.523 576.852C191.247 576.664 190.893 576.57 190.461 576.57ZM198.07 571.844L198.07 574.773C198.07 575.112 198.06 575.445 198.039 575.773C198.023 576.096 198.008 576.349 197.992 576.531L198.07 576.531C198.305 576.156 198.63 575.841 199.047 575.586C199.469 575.326 200.008 575.195 200.664 575.195C201.69 575.195 202.516 575.573 203.141 576.328C203.766 577.078 204.078 578.19 204.078 579.664C204.078 580.643 203.935 581.466 203.648 582.133C203.362 582.8 202.958 583.305 202.438 583.648C201.922 583.987 201.315 584.156 200.617 584.156C199.961 584.156 199.43 584.037 199.023 583.797C198.622 583.552 198.307 583.268 198.078 582.945L197.945 582.945L197.609 584L196.234 584L196.234 571.844L198.07 571.844ZM200.18 576.688C199.659 576.688 199.245 576.792 198.938 577C198.635 577.208 198.417 577.521 198.281 577.938C198.146 578.349 198.076 578.872 198.07 579.508L198.07 579.672C198.07 580.635 198.221 581.372 198.523 581.883C198.831 582.393 199.388 582.648 200.195 582.648C200.836 582.648 201.328 582.391 201.672 581.875C202.016 581.354 202.188 580.609 202.188 579.641C202.188 578.662 202.016 577.925 201.672 577.43C201.333 576.935 200.836 576.688 200.18 576.688ZM212.016 581.531C212.016 582.099 211.878 582.578 211.602 582.969C211.326 583.359 210.922 583.656 210.391 583.859C209.865 584.057 209.219 584.156 208.453 584.156C207.849 584.156 207.328 584.112 206.891 584.023C206.458 583.94 206.049 583.81 205.664 583.633L205.664 582.047C206.076 582.24 206.536 582.406 207.047 582.547C207.563 582.688 208.049 582.758 208.508 582.758C209.112 582.758 209.547 582.664 209.813 582.477C210.078 582.284 210.211 582.029 210.211 581.711C210.211 581.523 210.156 581.357 210.047 581.211C209.943 581.06 209.745 580.906 209.453 580.75C209.167 580.589 208.745 580.396 208.188 580.172C207.641 579.953 207.18 579.734 206.805 579.516C206.43 579.297 206.146 579.034 205.953 578.727C205.76 578.414 205.664 578.016 205.664 577.531C205.664 576.766 205.966 576.185 206.57 575.789C207.18 575.388 207.984 575.188 208.984 575.188C209.516 575.188 210.016 575.242 210.484 575.352C210.958 575.456 211.422 575.609 211.875 575.813L211.297 577.195C210.906 577.023 210.513 576.883 210.117 576.773C209.727 576.659 209.328 576.602 208.922 576.602C208.448 576.602 208.086 576.675 207.836 576.82C207.591 576.966 207.469 577.175 207.469 577.445C207.469 577.648 207.529 577.82 207.648 577.961C207.768 578.102 207.974 578.242 208.266 578.383C208.563 578.523 208.974 578.698 209.5 578.906C210.016 579.104 210.461 579.313 210.836 579.531C211.216 579.745 211.508 580.008 211.711 580.32C211.914 580.633 212.016 581.037 212.016 581.531ZM215.836 575.352L215.836 584L214 584L214 575.352L215.836 575.352ZM214.93 572.039C215.211 572.039 215.453 572.115 215.656 572.266C215.865 572.417 215.969 572.677 215.969 573.047C215.969 573.412 215.865 573.672 215.656 573.828C215.453 573.979 215.211 574.055 214.93 574.055C214.638 574.055 214.391 573.979 214.188 573.828C213.99 573.672 213.891 573.412 213.891 573.047C213.891 572.677 213.99 572.417 214.188 572.266C214.391 572.115 214.638 572.039 214.93 572.039ZM221.688 582.672C221.927 582.672 222.164 582.651 222.398 582.609C222.633 582.563 222.846 582.508 223.039 582.445L223.039 583.836C222.836 583.925 222.573 584 222.25 584.063C221.927 584.125 221.591 584.156 221.242 584.156C220.753 584.156 220.313 584.076 219.922 583.914C219.531 583.747 219.221 583.464 218.992 583.063C218.763 582.662 218.648 582.107 218.648 581.398L218.648 576.75L217.469 576.75L217.469 575.93L218.734 575.281L219.336 573.43L220.492 573.43L220.492 575.352L222.969 575.352L222.969 576.75L220.492 576.75L220.492 581.375C220.492 581.813 220.602 582.138 220.82 582.352C221.039 582.565 221.328 582.672 221.688 582.672ZM228.242 575.188C229.013 575.188 229.674 575.346 230.227 575.664C230.779 575.982 231.203 576.432 231.5 577.016C231.797 577.599 231.945 578.297 231.945 579.109L231.945 580.094L226.172 580.094C226.193 580.932 226.417 581.578 226.844 582.031C227.276 582.484 227.88 582.711 228.656 582.711C229.208 582.711 229.703 582.659 230.141 582.555C230.583 582.445 231.039 582.287 231.508 582.078L231.508 583.57C231.076 583.773 230.635 583.922 230.188 584.016C229.74 584.109 229.203 584.156 228.578 584.156C227.729 584.156 226.982 583.992 226.336 583.664C225.695 583.331 225.193 582.836 224.828 582.18C224.469 581.523 224.289 580.708 224.289 579.734C224.289 578.766 224.453 577.943 224.781 577.266C225.109 576.589 225.57 576.073 226.164 575.719C226.758 575.365 227.451 575.188 228.242 575.188ZM228.242 576.57C227.664 576.57 227.195 576.758 226.836 577.133C226.482 577.508 226.273 578.057 226.211 578.781L230.148 578.781C230.143 578.349 230.07 577.966 229.93 577.633C229.794 577.3 229.586 577.039 229.305 576.852C229.029 576.664 228.674 576.57 228.242 576.57Z" fill="#6FDFDF"/>
<path d="M252.556 572.556L258 578M258 578L252.556 583.444M258 578L244 578" stroke="#FAFAFA" stroke-width="1.67" stroke-linecap="round" stroke-linejoin="round"/>
</g>
<defs>
<filter id="filter0_f_204_6005" x="-781.583" y="-449.097" width="1300.05" height="1300.05" filterUnits="userSpaceOnUse" color-interpolation-filters="sRGB">
<feFlood flood-opacity="0" result="BackgroundImageFix"/>
<feBlend mode="normal" in="SourceGraphic" in2="BackgroundImageFix" result="shape"/>
<feGaussianBlur stdDeviation="176.862" result="effect1_foregroundBlur_204_6005"/>
</filter>
<filter id="filter1_f_204_6005" x="-1.20692" y="97.5914" width="979.829" height="1147.17" filterUnits="userSpaceOnUse" color-interpolation-filters="sRGB">
<feFlood flood-opacity="0" result="BackgroundImageFix"/>
<feBlend mode="normal" in="SourceGraphic" in2="BackgroundImageFix" result="shape"/>
<feGaussianBlur stdDeviation="17.7377" result="effect1_foregroundBlur_204_6005"/>
</filter>
<filter id="filter2_f_204_6005" x="-11.3457" y="165.609" width="654.139" height="654.483" filterUnits="userSpaceOnUse" color-interpolation-filters="sRGB">
<feFlood flood-opacity="0" result="BackgroundImageFix"/>
<feBlend mode="normal" in="SourceGraphic" in2="BackgroundImageFix" result="shape"/>
<feGaussianBlur stdDeviation="31.0198" result="effect1_foregroundBlur_204_6005"/>
</filter>
<filter id="filter3_f_204_6005" x="-583.943" y="-519.007" width="881.109" height="881.6" filterUnits="userSpaceOnUse" color-interpolation-filters="sRGB">
<feFlood flood-opacity="0" result="BackgroundImageFix"/>
<feBlend mode="normal" in="SourceGraphic" in2="BackgroundImageFix" result="shape"/>
<feGaussianBlur stdDeviation="44.2156" result="effect1_foregroundBlur_204_6005"/>
</filter>
<filter id="filter4_f_204_6005" x="177.152" y="420.152" width="1176.2" height="1176.56" filterUnits="userSpaceOnUse" color-interpolation-filters="sRGB">
<feFlood flood-opacity="0" result="BackgroundImageFix"/>
<feBlend mode="normal" in="SourceGraphic" in2="BackgroundImageFix" result="shape"/>
<feGaussianBlur stdDeviation="176.862" result="effect1_foregroundBlur_204_6005"/>
</filter>
<filter id="filter5_f_204_6005" x="-17.4586" y="518.505" width="501.958" height="502.238" filterUnits="userSpaceOnUse" color-interpolation-filters="sRGB">
<feFlood flood-opacity="0" result="BackgroundImageFix"/>
<feBlend mode="normal" in="SourceGraphic" in2="BackgroundImageFix" result="shape"/>
<feGaussianBlur stdDeviation="25.1891" result="effect1_foregroundBlur_204_6005"/>
</filter>
<linearGradient id="paint0_linear_204_6005" x1="-140.682" y1="102.98" x2="1285.67" y2="866.587" gradientUnits="userSpaceOnUse">
<stop stop-color="#662483"/>
<stop offset="0.416667" stop-color="#67378D"/>
<stop offset="1" stop-color="#6FDFDF"/>
</linearGradient>
<linearGradient id="paint1_linear_204_6005" x1="-140.682" y1="102.98" x2="1285.67" y2="866.587" gradientUnits="userSpaceOnUse">
<stop stop-color="#662483"/>
<stop offset="0.416667" stop-color="#67378D"/>
<stop offset="1" stop-color="#6FDFDF"/>
</linearGradient>
<clipPath id="clip0_204_6005">
<rect width="709" height="983" fill="white" transform="translate(0 -1)"/>
</clipPath>
</defs>
</svg>
